<?xml version="1.0" standalone="no"?><!DOCTYPE svg PUBLIC "-//W3C//DTD SVG 1.1//EN" "http://www.w3.org/Graphics/SVG/1.1/DTD/svg11.dtd"><svg t="1541777512770" class="icon" style="" viewBox="0 0 1024 1024" version="1.1" xmlns="http://www.w3.org/2000/svg" p-id="2905" xmlns:xlink="http://www.w3.org/1999/xlink" width="32" height="32"><defs><style type="text/css"></style></defs><path d="M340.101083 670.710508v1.598595h0.699385l0.099913 0.199825 0.399648-0.199825H707.378281v-43.461801H369.175529L197.026832 236.69197l-0.299737 0.099912v-0.099912h-115.898136c-8.992097 14.087618-17.284808 28.574885-24.878135 43.461801h112.601035l171.549224 390.556737zM274.15904 897.211435l-46.758903 39.26549c10.790516 7.29359 21.880769 14.087618 33.270758 20.58191l37.367157-31.372427-23.879012-28.474973zM393.054542 897.211435l-94.516929 79.330276c12.688848 5.794907 25.57752 11.190165 38.765929 15.98595l79.630012-66.841253-23.879012-28.474973zM504.756366 897.211435l-128.287247 107.705337c14.886916 4.0964 30.073568 7.493414 45.460045 10.290956l106.706215-89.621232-23.879013-28.375061zM623.851693 897.211435l-148.469509 124.690409c12.189287 0.89921 24.578398 1.298858 36.967509 1.298859 6.594204 0 13.088496-0.099912 19.582788-0.399649l115.798224-97.214558-23.879012-28.375061zM734.554396 897.211435L591.879793 1017.006147c27.775588-4.296224 54.85179-10.890428 81.028783-19.582789l85.524832-71.836862-23.879012-28.375061z" fill="#FFFFFF" p-id="2906"></path><path d="M811.586691 672.409016H998.122744c16.785247-50.555566 25.777344-104.608059 25.777344-160.858621 0-282.551664-228.998732-511.550395-511.550395-511.550395C331.009074 0.099912 171.749049 94.417016 80.828959 236.69197h115.898136v0.099912l0.299737-0.099912 172.148697 392.05542h338.10284V672.309103H341.200117l-0.399649 0.199825-0.099912-0.199825h-0.699385v-1.598595L168.651771 280.253683H55.950824C20.681823 349.692653 0.799297 428.323544 0.799297 511.650307c0 56.150649 9.092009 110.203142 25.877257 160.858621h161.358181v35.468826H39.864962c13.887794 33.37067 31.172602 64.942921 51.554689 94.317104 36.467948 52.753635 82.72729 98.313592 135.980486 134.182067l46.758903-39.26549 23.879012 28.474973-37.467069 31.372427c12.389111 6.993853 25.077959 13.488145 37.96663 19.482876l94.516929-79.330276 23.879012 28.474973-79.630012 66.841253c12.78876 4.695873 25.877256 8.792272 39.165577 12.489024l128.287247-107.705338 23.879013 28.474974-106.706215 89.621231c13.588057 2.397892 27.375939 4.296224 41.363645 5.694995 3.996487 0.399649 7.992975 0.699385 11.989462 0.999121l148.46951-124.690408 23.879012 28.474973-115.798224 97.214557c9.59157-0.399649 19.18314-0.999122 28.674798-1.898331 10.49078-0.999122 20.881647-2.29798 31.272514-3.896575l142.674602-119.794712 23.879013 28.474973-85.524832 71.836862c108.904283-35.968387 201.622792-107.505513 264.367646-200.923407 18.583667-27.675676 34.569617-57.349595 47.558201-88.522197H811.586691v-35.968387z" fill="#29ABE2" p-id="2907"></path><path d="M187.934823 672.409016H26.576642c3.996487 11.989462 8.392624 23.879013 13.28832 35.468826h148.169773v-35.468826zM811.586691 672.409016v35.468826h173.247732c4.795785-11.589814 9.291833-23.479364 13.188408-35.468826H811.586691zM720.966338 474.383062l5.295346-12.489024h-5.295346zM618.856084 461.894038h78.131329v27.475852h-78.131329zM533.830813 461.894038h61.046346v27.475852h-61.046346zM618.856084 355.887209h78.131329v30.373304h-78.131329zM720.966338 437.815201H736.352815l11.589814-27.475851h-26.976291zM618.856084 305.931115h78.131329v25.877257h-78.131329zM720.966338 386.260513h37.067421l12.688848-30.373304h-49.756269zM363.880183 461.894038h64.443361v27.475852h-64.443361zM533.830813 305.931115h61.046346v25.877257h-61.046346zM533.830813 410.33935h61.046346v27.475851h-61.046346zM533.830813 355.887209h61.046346v30.373304h-61.046346zM618.856084 410.33935h78.131329v27.475851h-78.131329zM452.402381 355.887209h57.449507v30.373304h-57.449507zM363.880183 410.33935h64.443361v27.475851h-64.443361zM452.402381 410.33935h57.449507v27.475851h-57.449507zM452.402381 461.894038h57.449507v27.475852h-57.449507zM533.830813 513.448727h61.046346v20.781735h-61.046346zM696.987413 531.532832V513.448727h-78.131329v20.781735h77.032295zM720.966338 331.908284h59.8474l10.890428-25.977169h-70.737828zM533.830813 558.209386h61.046346v35.468827h-61.046346zM339.901259 331.908284v-25.977169h-74.334667l11.290077 25.977169zM452.402381 558.209386h57.449507v35.468827h-57.449507zM618.856084 558.209386v35.568739h52.054249l14.886916-35.568739zM428.323544 558.209386h-53.253196l15.386477 35.568739h37.866719zM428.323544 513.448727h-64.443361v19.083227l0.799298 1.698508h63.644063zM300.435945 386.260513h39.465314v-30.373304h-52.653723zM452.402381 513.448727h57.449507v20.781735h-57.449507zM363.880183 305.931115h64.443361v25.877257h-64.443361zM363.880183 355.887209h64.443361v30.373304h-64.443361zM452.402381 305.931115h57.449507v25.877257h-57.449507zM339.901259 437.815201v-27.475851h-28.974534l11.88955 27.475851zM339.901259 461.894038h-6.694117l6.694117 15.286565z" fill="#FFFFFF" p-id="2908"></path><path d="M657.921748 777.416724m-48.857059 0a48.857059 48.857059 0 1 0 97.714119 0 48.857059 48.857059 0 1 0-97.714119 0Z" fill="#FFFFFF" p-id="2909"></path><path d="M381.664553 777.416724m-48.85706 0a48.857059 48.857059 0 1 0 97.714119 0 48.857059 48.857059 0 1 0-97.714119 0Z" fill="#FFFFFF" p-id="2910"></path></svg>